<mxfile host="app.diagrams.net" modified="2024-06-16T21:07:12.071Z" agent="Mozilla/5.0 (Windows NT 10.0; Win64; x64) AppleWebKit/537.36 (KHTML, like Gecko) Chrome/126.0.0.0 Safari/537.36" version="24.4.13" etag="6ZpjyRCh8tz70UVdZ9vJ" type="github">
  <diagram name="Page-1" id="SqHdvCejcAxI0h5qhX7C">
    <mxGraphModel>
      <root>
        <mxCell id="0" />
        <mxCell id="1" parent="0" />
      </root>
    </mxGraphModel>
  </diagram>
</mxfile>
